<svg height="100" width="100" viewBox="0 0 100 100"
     xmlns="http://www.w3.org/2000/svg"
     version="1.1">
  <rect height="100" width="100" fill="blue" />
  <!-- <line x1="50" y1="0" x2="50" y2="100" stroke-width="1" /> -->

  <g id="base">
    <g id="points">
      <circle r="3" cx="50" cy="50" />
    
      <circle r="3" cx="20" cy="50" />
      <circle r="3" cx="35" cy="74.02" />
      <circle r="3" cx="65" cy="74.02" />
      <circle r="3" cx="80" cy="50" />
      <circle r="3" cx="65" cy="25.98" />
      <circle r="3" cx="35" cy="25.98" />
    </g>
    <g id="guides">
      <g><!-- Through lines -->
        <line x1="0" y1="50" x2="100" y2="50" stroke-width="1" />
        <line x1="22.5" y1="6.03" x2="77.5" y2="93.97" stroke-width="1" />
        <line x1="22.5" y1="93.97" x2="77.5" y2="6.03" stroke-width="1" />
      </g>
      <g><!-- Around lines -->
        <line x1="20" y1="50" x2="35" y2="74.02" stroke-width="1" />
        <line x1="35" y1="74.02" x2="65" y2="74.02" stroke-width="1" />
        <line x1="65" y1="74.02" x2="80" y2="50" stroke-width="1" />
        <line x1="80" y1="50" x2="65" y2="25.98" stroke-width="1" />
        <line x1="65" y1="25.98" x2="35" y2="25.98" stroke-width="1" />
        <line x1="35" y1="25.98" x2="20" y2="50" stroke-width="1" />
      </g>
    </g>
  </g>

  <g id="out1">
    <rect height="20" width="20" y="40" fill="blue" />
    <line x1="1" y1="50" x2="20" y2="50" stroke-width="2" />
  </g>
  <line id="out2" x1="22.5" y1="93.97" x2="35" y2="74.02" stroke-width="2" />
  <line id="out3" x1="77.5" y1="93.97" x2="65" y2="74.02" stroke-width="2" />
  <line id="out4" x1="80" y1="50" x2="99" y2="50" stroke-width="2" />
  <line id="out5" x1="77.5" y1="6.03" x2="65" y2="25.98" stroke-width="2" />
  <line id="out6" x1="35" y1="25.98" x2="22.5" y2="6.03" stroke-width="2" />
</svg>
